<?xml version="1.0" encoding="UTF-8"?><svg xmlns="http://www.w3.org/2000/svg" viewBox="0 0 100 100"><defs><style>.cls-1{fill:#977e65;}.cls-1,.cls-2{stroke-width:0px;}.cls-2{fill:#ffde55;}</style></defs><g id="Layer_1"><circle class="cls-2" cx="50" cy="50" r="50"/><ellipse class="cls-1" cx="29.5" cy="49" rx="4.5" ry="5.5"/><ellipse class="cls-1" cx="70.5" cy="49" rx="4.5" ry="5.5"/></g><g id="Layer_2"><path class="cls-1" d="m65.96,72.18c-1.07,0-2.41-.36-4.25-.86-2.88-.78-6.81-1.85-11.2-1.85h-.48s-.55,0-.55,0c-4.38,0-8.32,1.07-11.2,1.85-1.84.5-3.18.86-4.25.86-1.32,0-2.05-.57-2.43-1.05-.36-.45-.52-1.02-.44-1.59.08-.57.38-1.08.85-1.42,5.27-3.83,11.49-5.85,18-5.85s12.73,2.02,18,5.85c.46.34.77.85.85,1.42.08.57-.08,1.14-.44,1.59-.38.48-1.12,1.05-2.43,1.05h0Z"/></g></svg>