<?xml version="1.0" encoding="UTF-8"?><svg xmlns="http://www.w3.org/2000/svg" viewBox="0 0 100 100"><defs><style>.cls-1{fill:#977e65;}.cls-1,.cls-2{stroke-width:0px;}.cls-2{fill:#ffde55;}</style></defs><g id="Layer_1"><circle class="cls-2" cx="50" cy="50" r="50"/><ellipse class="cls-1" cx="29.5" cy="49" rx="4.5" ry="5.5"/><ellipse class="cls-1" cx="70.5" cy="49" rx="4.5" ry="5.5"/></g><g id="Layer_2"><path class="cls-1" d="m50,73.58c-8.69,0-15.49-4.48-16.89-7.58-.75-1.65-.02-2.74.32-3.14.41-.47.99-.71,1.57-.71.38,0,.75.1,1.09.31,4.19,2.57,8.99,3.92,13.9,3.92s9.72-1.36,13.9-3.92c.34-.21.72-.31,1.09-.31.59,0,1.16.24,1.57.71.35.39,1.07,1.48.32,3.14-1.4,3.1-8.2,7.58-16.85,7.58h-.06Z"/></g></svg>