<?xml version="1.0" encoding="UTF-8"?><svg xmlns="http://www.w3.org/2000/svg" viewBox="0 0 100 100"><defs><style>.cls-1{fill:none;stroke:#977e65;stroke-linecap:round;stroke-linejoin:round;stroke-width:4px;}.cls-2{fill:#80caff;}.cls-2,.cls-3,.cls-4{stroke-width:0px;}.cls-3{fill:#977e65;}.cls-4{fill:#ffde55;}</style></defs><g id="Layer_1"><circle class="cls-4" cx="50" cy="50" r="50"/><ellipse class="cls-3" cx="29.5" cy="49" rx="4.5" ry="5.5"/><ellipse class="cls-3" cx="70.5" cy="49" rx="4.5" ry="5.5"/></g><g id="Layer_2"><path class="cls-3" d="m61.63,71.98c-.99,0-2.18-.25-3.7-.55-2.08-.43-4.67-.96-7.44-.96h-.45s-.53,0-.53,0c-2.77,0-5.36.53-7.44.96-1.51.31-2.71.55-3.7.55-1.11,0-1.95-.34-2.51-1-.32-.38-.47-.88-.41-1.37.06-.49.32-.94.73-1.23,4.04-2.94,8.82-4.49,13.82-4.49s9.78,1.55,13.82,4.49c.4.29.67.74.73,1.23.06.49-.09.99-.41,1.37-.56.66-1.4,1-2.51,1Z"/><path class="cls-2" d="m34.69,66.1c0,6.1-3.13,9.05-7,9.05s-7-2.95-7-9.05,7-11.05,7-11.05c0,0,7,4.95,7,11.05Z"/><path class="cls-1" d="m20,46.26s4.03.04,6.92-2.86c2.47-2.48,3.92-6.24,3.92-6.24"/><path class="cls-1" d="m80,46.26s-4.03.04-6.92-2.86c-2.47-2.48-3.92-6.24-3.92-6.24"/></g></svg>